HIERARCHY
ROOT Hips
{
	OFFSET 0.000000 0.000000 0.000000 
	CHANNELS 6 Xposition Yposition Zposition Zrotation Yrotation Xrotation
	JOINT LHipJoint
	{
		OFFSET 0.000000 0.000000 0.000000 
		CHANNELS 3 Zrotation Yrotation Xrotation
		JOINT LeftUpLeg
		{
			OFFSET 0.085211 -0.098391 0.069398 
			CHANNELS 3 Zrotation Yrotation Xrotation
			JOINT LeftLeg
			{
				OFFSET 0.149043 -0.409492 0.000000 
				CHANNELS 3 Zrotation Yrotation Xrotation
				JOINT LeftFoot
				{
					OFFSET 0.148229 -0.407256 0.000000 
					CHANNELS 3 Zrotation Yrotation Xrotation
					JOINT LeftToeBase
					{
						OFFSET 0.018174 -0.049932 0.125871 
						CHANNELS 3 Zrotation Yrotation Xrotation
						End Site
						{
							OFFSET 0.000000 -0.000000 0.067452 
						}
					}
				}
			}
		}
	}
	JOINT RHipJoint
	{
		OFFSET 0.000000 0.000000 0.000000 
		CHANNELS 3 Zrotation Yrotation Xrotation
		JOINT RightUpLeg
		{
			OFFSET -0.085218 -0.098391 0.069398 
			CHANNELS 3 Zrotation Yrotation Xrotation
			JOINT RightLeg
			{
				OFFSET -0.143476 -0.394198 0.000000 
				CHANNELS 3 Zrotation Yrotation Xrotation
				JOINT RightFoot
				{
					OFFSET -0.150616 -0.413812 0.000000 
					CHANNELS 3 Zrotation Yrotation Xrotation
					JOINT RightToeBase
					{
						OFFSET -0.014498 -0.039833 0.120145 
						CHANNELS 3 Zrotation Yrotation Xrotation
						End Site
						{
							OFFSET -0.000000 -0.000000 0.063476 
						}
					}
				}
			}
		}
	}
	JOINT LowerBack
	{
		OFFSET 0.000000 0.000000 0.000000 
		CHANNELS 3 Zrotation Yrotation Xrotation
		JOINT Spine
		{
			OFFSET -0.005353 0.127251 -0.015351 
			CHANNELS 3 Zrotation Yrotation Xrotation
			JOINT Spine1
			{
				OFFSET -0.000023 0.128558 0.000135 
				CHANNELS 3 Zrotation Yrotation Xrotation
				JOINT Neck
				{
					OFFSET 0.000000 0.000000 0.000000 
					CHANNELS 3 Zrotation Yrotation Xrotation
					JOINT Neck1
					{
						OFFSET -0.002290 0.105947 0.019868 
						CHANNELS 3 Zrotation Yrotation Xrotation
						JOINT Head
						{
							OFFSET 0.000583 0.106363 -0.028758 
							CHANNELS 3 Zrotation Yrotation Xrotation
							End Site
							{
								OFFSET 0.000777 0.111013 -0.012111 
							}
						}
					}
				}
				JOINT LeftShoulder
				{
					OFFSET 0.000000 0.000000 0.000000 
					CHANNELS 3 Zrotation Yrotation Xrotation
					JOINT LeftArm
					{
						OFFSET 0.233965 0.050822 -0.022904 
						CHANNELS 3 Zrotation Yrotation Xrotation
						JOINT LeftForeArm
						{
							OFFSET 0.310741 -0.000000 -0.000000 
							CHANNELS 3 Zrotation Yrotation Xrotation
							JOINT LeftHand
							{
								OFFSET 0.209882 -0.000000 0.000000 
								CHANNELS 3 Zrotation Yrotation Xrotation
								JOINT LeftFingerBase
								{
									OFFSET 0.000000 0.000000 0.000000 
									CHANNELS 3 Zrotation Yrotation Xrotation
									JOINT LeftHandIndex1
									{
										OFFSET 0.038924 -0.000000 0.000000 
										CHANNELS 3 Zrotation Yrotation Xrotation
										End Site
										{
											OFFSET 0.031381 -0.000000 0.000000 
										}
									}
								}
								JOINT LThumb
								{
									OFFSET 0.000000 0.000000 0.000000 
									CHANNELS 3 Zrotation Yrotation Xrotation
									End Site
									{
										OFFSET 0.031860 -0.000000 0.031860 
									}
								}
							}
						}
					}
				}
				JOINT RightShoulder
				{
					OFFSET 0.000000 0.000000 0.000000 
					CHANNELS 3 Zrotation Yrotation Xrotation
					JOINT RightArm
					{
						OFFSET -0.234616 0.031666 -0.004078 
						CHANNELS 3 Zrotation Yrotation Xrotation
						JOINT RightForeArm
						{
							OFFSET -0.310308 -0.000000 -0.000000 
							CHANNELS 3 Zrotation Yrotation Xrotation
							JOINT RightHand
							{
								OFFSET -0.209331 -0.000000 0.000000 
								CHANNELS 3 Zrotation Yrotation Xrotation
								JOINT RightFingerBase
								{
									OFFSET 0.000000 0.000000 0.000000 
									CHANNELS 3 Zrotation Yrotation Xrotation
									JOINT RightHandIndex1
									{
										OFFSET -0.039878 -0.000000 0.000000 
										CHANNELS 3 Zrotation Yrotation Xrotation
										End Site
										{
											OFFSET -0.032151 -0.000000 0.000000 
										}
									}
								}
								JOINT RThumb
								{
									OFFSET 0.000000 0.000000 0.000000 
									CHANNELS 3 Zrotation Yrotation Xrotation
									End Site
									{
										OFFSET -0.032641 -0.000000 0.032641 
									}
								}
							}
						}
					}
				}
			}
		}
	}
}
MOTION
Frames: 6
Frame Time: 0.033383
0.000000 0.965071 0.000000 0.000000 0.000000 0.000000 0.000000 0.000000 0.000000 0.000000 0.000000 0.000000 0.000000 0.000000 0.000000 0.000000 0.000000 0.000000 0.000000 0.000000 0.000000 0.000000 0.000000 0.000000 0.000000 0.000000 0.000000 0.000000 0.000000 0.000000 0.000000 0.000000 0.000000 0.000000 0.000000 0.000000 -5.590167 -0.660643 -5.892226 0.021073 -0.443061 1.996269 3.115634 -0.417352 5.439158 -9.770571 -5.523974 -18.325117 3.311561 -7.188601 34.125477 1.639686 -4.202785 15.704494 0.000000 0.000000 0.000000 -90.632767 -4.810625 24.470558 11.610079 -19.192963 -1.989744 0.000000 0.000000 -3.736284 21.439632 -11.580291 -4.510624 -7.125000 0.000000 0.000000 -3.997005 17.578236 2.607955 0.000000 0.000000 0.000000 86.844643 2.991177 19.871586 -14.028541 22.713591 -2.877007 0.000000 0.000000 -7.436962 -11.291491 -29.212837 5.576824 7.125000 0.000000 0.000000 21.949192 -58.301640 -7.351014 
0.000000 0.965071 0.000000 0.000000 0.000000 0.000000 0.000000 0.000000 0.000000 0.000000 0.000000 0.000000 0.000000 0.000000 0.000000 0.000000 0.000000 0.000000 0.000000 0.000000 0.000000 0.000000 0.000000 0.000000 0.000000 0.000000 0.000000 0.000000 0.000000 0.000000 0.000000 0.000000 0.000000 0.000000 0.000000 0.000000 -5.684636 -0.764415 -5.763829 0.014863 -0.594805 1.574648 3.146768 -0.472658 4.937589 -9.989252 -5.736171 -17.956881 3.246405 -7.376300 33.515781 1.624730 -4.303422 15.335568 0.000000 0.000000 0.000000 -90.813530 -3.900325 24.989283 11.796695 -19.480717 -2.047119 0.000000 0.000000 -4.888418 22.041656 -12.129354 -4.848221 -7.125000 0.000000 0.000000 -3.590727 16.946978 2.405273 0.000000 0.000000 0.000000 86.785103 2.279387 20.455126 -14.436604 23.317450 -3.021635 0.000000 0.000000 -7.597212 -11.173654 -30.143888 5.664721 7.125000 0.000000 0.000000 22.758265 -59.127094 -8.100570 
0.000000 0.965071 0.000000 0.000000 0.000000 0.000000 0.000000 0.000000 0.000000 0.000000 0.000000 0.000000 0.000000 0.000000 0.000000 0.000000 0.000000 0.000000 0.000000 0.000000 0.000000 0.000000 0.000000 0.000000 0.000000 0.000000 0.000000 0.000000 0.000000 0.000000 0.000000 0.000000 0.000000 0.000000 0.000000 0.000000 -5.487905 -0.703187 -6.062032 -0.022746 -0.510648 1.513826 3.005302 -0.425064 5.032320 -9.876633 -5.950068 -17.770647 3.345048 -7.694901 32.805691 1.597173 -4.382760 14.970444 0.000000 0.000000 0.000000 -90.806297 -3.845225 25.160107 11.651310 -19.262770 -1.997894 0.000000 0.000000 -4.661452 21.499781 -11.886115 -4.633118 -7.125000 0.000000 0.000000 -3.962449 17.252018 2.620392 0.000000 0.000000 0.000000 87.140167 2.229896 20.100567 -14.209866 22.997009 -2.931863 0.000000 0.000000 -7.859762 -10.647017 -30.041538 5.380718 7.125000 0.000000 0.000000 23.220936 -58.917152 -8.154427 
0.000000 0.965071 0.000000 0.000000 0.000000 0.000000 0.000000 0.000000 0.000000 0.000000 0.000000 0.000000 0.000000 0.000000 0.000000 0.000000 0.000000 0.000000 0.000000 0.000000 0.000000 0.000000 0.000000 0.000000 0.000000 0.000000 0.000000 0.000000 0.000000 0.000000 0.000000 0.000000 0.000000 0.000000 0.000000 0.000000 -5.446573 -0.809659 -6.944235 0.103245 -0.596892 1.777104 3.098037 -0.492970 5.822052 -10.261614 -6.170965 -18.163214 3.739992 -7.888500 32.255196 1.784617 -4.420997 14.851019 0.000000 0.000000 0.000000 -91.106956 -4.257325 24.828531 11.727226 -19.381323 -2.020169 0.000000 0.000000 -4.346587 20.777006 -11.523378 -4.338515 -7.125000 0.000000 0.000000 -4.459571 17.696459 2.899411 0.000000 0.000000 0.000000 87.080330 2.893906 20.024006 -14.062529 22.791769 -2.871791 0.000000 0.000000 -7.626412 -10.849479 -30.750189 5.593015 7.125000 0.000000 0.000000 23.572807 -59.604111 -8.686282 
0.000000 0.965071 0.000000 0.000000 0.000000 0.000000 0.000000 0.000000 0.000000 0.000000 0.000000 0.000000 0.000000 0.000000 0.000000 0.000000 0.000000 0.000000 0.000000 0.000000 0.000000 0.000000 0.000000 0.000000 0.000000 0.000000 0.000000 0.000000 0.000000 0.000000 0.000000 0.000000 0.000000 0.000000 0.000000 0.000000 -5.238342 -0.776130 -7.058938 0.095435 -0.573636 1.460382 2.976371 -0.460377 5.547383 -10.218796 -6.259962 -17.956379 3.713936 -8.033100 32.103504 1.744761 -4.481534 14.734994 0.000000 0.000000 0.000000 -91.211731 -3.730325 25.108757 11.631442 -19.238876 -1.986844 0.000000 0.000000 -4.283321 21.056931 -11.821841 -4.508012 -7.125000 0.000000 0.000000 -4.270593 17.359198 2.812030 0.000000 0.000000 0.000000 87.169792 2.352115 19.464647 -14.031991 22.755728 -2.855420 0.000000 0.000000 -6.609862 -11.865841 -29.380838 5.884912 7.125000 0.000000 0.000000 21.490881 -58.577164 -7.349339 
0.000000 0.965071 0.000000 0.000000 0.000000 0.000000 0.000000 0.000000 0.000000 0.000000 0.000000 0.000000 0.000000 0.000000 0.000000 0.000000 0.000000 0.000000 0.000000 0.000000 0.000000 0.000000 0.000000 0.000000 0.000000 0.000000 0.000000 0.000000 0.000000 0.000000 0.000000 0.000000 0.000000 0.000000 0.000000 0.000000 -5.359011 -0.863602 -7.200042 0.099326 -0.673280 1.337760 3.035906 -0.509683 5.509914 -10.414477 -6.328458 -17.855446 3.704580 -8.043000 31.876709 1.775205 -4.505472 14.612968 0.000000 0.000000 0.000000 -91.299789 -3.626125 25.222980 11.546556 -19.113029 -1.957119 0.000000 0.000000 -4.236956 20.804356 -11.104803 -4.191308 -7.125000 0.000000 0.000000 -4.430415 18.138838 2.834948 0.000000 0.000000 0.000000 87.191956 1.948724 19.678688 -13.759753 22.369287 -2.748647 0.000000 0.000000 -7.354813 -11.034103 -29.336487 5.459909 7.125000 0.000000 0.000000 22.309252 -58.354919 -7.521995 
